PathFileType	4	(X/Y/Z)	C:/Users/opensim2020/Desktop/walking_exp_matlab/subject02_walking04_straight_04.trc	
DataRate	CameraRate	NumFrames	NumMarkers	Units	OrigDataRate	OrigDataStartFrame	OrigNumFrames	
100.00	100.00	4	42	mm	100.00	3073	239	
Frame#	Time	LFHD			RFHD			LBHD			RBHD			C7			T10			CLAV			STRN			RBAK			LSHO			LUPA			LELB			LFRM			LWRA			LWRB			LFIN			RSHO			RUPA			RELB			RFRM			RWRA			RWRB			RFIN			LASI			RASI			LPSI			RPSI			LTHI			LKNE			LTIB			LANK			LHEE			LTOE			RTHI			RKNE			RTIB			RANK			RHEE			RTOE			*39			*40			*41			
		X1	Y1	Z1	X2	Y2	Z2	X3	Y3	Z3	X4	Y4	Z4	X5	Y5	Z5	X6	Y6	Z6	X7	Y7	Z7	X8	Y8	Z8	X9	Y9	Z9	X10	Y10	Z10	X11	Y11	Z11	X12	Y12	Z12	X13	Y13	Z13	X14	Y14	Z14	X15	Y15	Z15	X16	Y16	Z16	X17	Y17	Z17	X18	Y18	Z18	X19	Y19	Z19	X20	Y20	Z20	X21	Y21	Z21	X22	Y22	Z22	X23	Y23	Z23	X24	Y24	Z24	X25	Y25	Z25	X26	Y26	Z26	X27	Y27	Z27	X28	Y28	Z28	X29	Y29	Z29	X30	Y30	Z30	X31	Y31	Z31	X32	Y32	Z32	X33	Y33	Z33	X34	Y34	Z34	X35	Y35	Z35	X36	Y36	Z36	X37	Y37	Z37	X38	Y38	Z38	X39	Y39	Z39	X40	Y40	Z40	X41	Y41	Z41	X42	Y42	Z42	

150	1.490	1470.33826	-337.38083	1719.30676	1327.75952	-323.25507	1700.07507	1489.45020	-196.44342	1668.69287	1348.24170	-170.88116	1650.78870	1410.31738	-116.38406	1529.73083	1395.29492	-50.35539	1252.84729	1427.81348	-250.06081	1451.00391	1412.24744	-294.86578	1279.93591	1333.62036	-54.36469	1358.62927	1592.88013	-169.87924	1491.41199	1667.18567	-112.64685	1297.97546	1676.84082	-82.43534	1160.78735	1694.81470	-67.42153	1030.01392	1677.32141	-107.97347	895.24884	1701.34241	-57.59916	906.67328	1708.15894	-65.30580	840.06720	1229.88586	-203.99765	1499.38977	1128.51758	-203.24593	1315.47424	1099.79651	-244.65712	1174.55566	1080.90942	-304.47000	1070.76001	1099.43469	-385.49350	963.25940	1063.88232	-343.72864	947.33795	1060.57458	-399.27765	901.22717	1532.79480	-284.45676	991.41602	1274.85168	-281.29016	974.80878	1452.94141	-73.63201	1030.73914	1338.77380	-67.20781	1030.71167	1610.21130	-278.74704	690.21252	1587.53223	-315.74979	494.27283	1590.89526	-297.23044	301.03748	1577.99817	-349.55191	81.37102	1521.16748	-331.26044	48.34447	1613.90784	-502.06885	68.01859	1227.76733	-178.46680	667.19031	1277.08301	-152.48965	459.12317	1276.96191	-87.21555	281.26477	1322.70825	-47.43186	92.64719	1379.80005	-9.39093	39.55073	1304.60913	-195.65715	35.33311	1386.57410	-242.01491	1801.70276	-3360.12915	2844.98901	1033.87292			 
151	1.500	1471.39380	-345.70758	1717.86377	1328.83569	-331.77863	1698.87061	1490.22278	-204.94623	1667.38599	1349.04138	-179.39958	1649.64197	1411.12244	-124.73601	1528.54712	1396.28662	-58.56709	1251.66370	1428.53552	-258.46439	1449.72998	1412.69434	-303.23657	1278.67395	1334.34277	-62.75721	1357.51306	1593.65759	-178.32350	1489.94348	1667.79944	-119.68208	1297.02905	1677.12610	-88.41032	1160.07983	1695.23694	-71.42633	1029.66528	1678.62610	-109.96964	894.35425	1702.10107	-59.73989	906.51208	1709.08716	-66.23302	839.81201	1230.74365	-212.02489	1498.36084	1129.85535	-212.12276	1313.90869	1100.38513	-255.55705	1173.88940	1081.73096	-316.54556	1070.18518	1100.18835	-398.28296	964.01428	1064.57458	-357.05173	947.70129	1061.25952	-412.95474	902.30414	1532.85217	-293.35989	990.06525	1274.88379	-289.16730	973.86981	1454.01575	-82.15765	1029.45654	1339.89124	-75.03730	1029.48853	1610.51514	-286.50299	688.60809	1587.72180	-325.82318	493.15390	1592.56287	-313.66632	299.46475	1580.67847	-373.59378	81.40382	1524.66943	-355.75797	46.79858	1613.77869	-527.39429	72.89419	1228.18164	-184.39114	666.28644	1277.61255	-156.73991	458.21631	1277.24976	-89.62373	281.27222	1322.98511	-48.01971	93.00035	1380.14954	-9.65951	39.99590	1304.60010	-195.58321	35.29584	1387.64758	-250.64684	1800.44043	-3360.26953	2845.15161	1033.79846			 
152	1.510	1472.55420	-354.15546	1716.53210	1329.93665	-340.30420	1697.53735	1491.25354	-213.33157	1666.01038	1350.03455	-187.84560	1648.44482	1412.05981	-133.06065	1527.25171	1397.44409	-66.79498	1250.43420	1429.40430	-266.97629	1448.43567	1413.28809	-311.60022	1277.35681	1335.40173	-71.08298	1356.24902	1594.55530	-186.76613	1488.46045	1668.21741	-127.21845	1295.75488	1677.71582	-94.56600	1159.40479	1695.88098	-75.78369	1029.14709	1679.80566	-112.49390	893.23132	1703.04480	-62.42532	906.30682	1710.03894	-67.59093	839.39478	1231.82690	-220.00522	1497.22449	1130.59021	-221.90443	1312.80554	1101.13464	-266.29178	1173.14587	1082.87781	-327.38870	1069.96277	1101.06494	-410.99881	964.56470	1065.34363	-369.78323	947.90558	1061.87695	-426.49777	903.10651	1532.82141	-302.27887	988.59528	1274.89148	-297.15643	972.56061	1455.15991	-90.74918	1028.11145	1341.12915	-82.97232	1028.26111	1610.99170	-294.44086	687.17920	1588.09521	-335.84698	491.97433	1594.18164	-329.64798	298.04288	1583.06519	-396.72794	81.75007	1527.13159	-379.43759	46.62581	1613.38220	-551.47516	77.72312	1228.69275	-190.45370	665.36719	1277.60889	-161.27914	457.61517	1277.52515	-92.42020	281.40091	1323.25647	-48.61058	93.35319	1380.48511	-9.92329	40.43911	1304.43677	-195.72617	35.26338	1388.80603	-259.16528	1799.16809	-3357.50610	2845.87573	1033.93469			 
153	1.520	1473.78027	-362.65765	1715.13794	1331.14258	-348.81079	1696.21899	1492.56897	-221.57428	1664.68933	1351.34424	-196.28500	1647.12915	1413.11047	-141.61949	1525.88416	1398.56897	-75.07288	1249.15332	1430.40613	-275.55264	1447.09094	1414.02881	-320.12177	1276.01624	1336.79834	-78.96031	1355.04797	1595.46545	-195.35199	1486.86670	1669.10608	-134.57727	1294.72339	1677.94434	-101.33436	1158.40820	1696.45691	-80.72670	1028.69019	1680.98059	-115.55029	892.00751	1704.22278	-65.47314	906.08539	1711.23230	-69.51203	839.06927	1232.88635	-228.24481	1495.99414	1131.76880	-230.48622	1311.30908	1102.09094	-276.70499	1172.26624	1083.40527	-339.79385	1069.90320	1102.13440	-423.52893	965.13098	1066.36401	-382.39630	947.95709	1062.97302	-439.43994	903.77588	1532.79797	-311.27371	987.10510	1274.88184	-305.01889	971.30170	1456.29932	-99.43733	1026.68384	1342.33362	-91.17747	1026.91553	1611.51843	-302.70517	685.68866	1588.55505	-345.81180	490.70135	1595.78857	-345.16592	296.79202	1585.23218	-418.84924	82.40202	1529.92395	-401.61652	46.11342	1612.71167	-574.30408	82.31557	1229.19836	-196.74237	664.55383	1277.97083	-165.76692	456.89816	1277.88635	-94.97813	281.43243	1323.56396	-49.26182	93.78101	1380.93762	-10.18989	40.93752	1304.37219	-195.88481	35.36935	1389.99609	-267.70499	1797.77783	-3357.23975	2845.72119	1033.84595			 
